<svg width="24" height="24" viewBox="0 0 24 24" fill="none" xmlns="http://www.w3.org/2000/svg">
<g filter="url(#filter0_b_10_223)">
<path d="M5.00354 7.00001H4.97538C4.66876 7.0185 4.36162 6.97358 4.07314 6.86805C3.78466 6.76252 3.52103 6.59864 3.29872 6.38666C3.07641 6.17468 2.90019 5.91914 2.78107 5.636C2.66195 5.35286 2.60248 5.0482 2.60638 4.74104C2.61028 4.43389 2.67746 4.13084 2.80373 3.85082C2.93001 3.57079 3.11265 3.31981 3.34027 3.11353C3.56789 2.90726 3.83559 2.75013 4.12666 2.65196C4.41773 2.55379 4.72591 2.51668 5.03196 2.54295C5.33953 2.52067 5.64838 2.56227 5.93909 2.66513C6.22981 2.76799 6.4961 2.92988 6.72122 3.14063C6.94634 3.35138 7.12542 3.60643 7.24721 3.88974C7.369 4.17304 7.43085 4.47848 7.42888 4.78685C7.42692 5.09522 7.36117 5.39985 7.23578 5.68158C7.11039 5.96331 6.92807 6.21605 6.70028 6.42391C6.47249 6.63177 6.20416 6.79026 5.91216 6.8894C5.62016 6.98854 5.3108 7.0262 5.00354 7.00001Z" fill="white"/>
<path d="M7.01801 10H3.01801V22H7.01801V10Z" fill="white"/>
<path d="M17.5176 10C16.8435 10.0018 16.1786 10.156 15.5725 10.451C14.9665 10.746 14.4349 11.1741 14.0176 11.7034V10H10.0176V22H14.0176V16.5C14.0176 15.9696 14.2283 15.4609 14.6034 15.0858C14.9784 14.7107 15.4871 14.5 16.0176 14.5C16.548 14.5 17.0567 14.7107 17.4318 15.0858C17.8069 15.4609 18.0176 15.9696 18.0176 16.5V22H22.0176V14.5C22.0176 13.9091 21.9012 13.3239 21.675 12.7779C21.4489 12.232 21.1174 11.7359 20.6996 11.318C20.2817 10.9002 19.7856 10.5687 19.2397 10.3425C18.6937 10.1164 18.1085 10 17.5176 10Z" fill="white"/>
</g>
<defs>
<filter id="filter0_b_10_223" x="-100" y="-100" width="224" height="224" filterUnits="userSpaceOnUse" color-interpolation-filters="sRGB">
<feFlood flood-opacity="0" result="BackgroundImageFix"/>
<feGaussianBlur in="BackgroundImageFix" stdDeviation="50"/>
<feComposite in2="SourceAlpha" operator="in" result="effect1_backgroundBlur_10_223"/>
<feBlend mode="normal" in="SourceGraphic" in2="effect1_backgroundBlur_10_223" result="shape"/>
</filter>
</defs>
</svg>
